# xmcd
#
# Track frame offsets: 
#        150
#        13552
#        28076
#        40812
#        56613
#        72599
#        85013
#        100554
#        111363
#        124518
#        142019
#        154092
#        165776
#        178565
#        195230
#        205248
#
# Disc length: 2925 seconds
#
# Revision: 0
# Processed by: cddbd v1.5.2PL0 Copyright (c) Steve Scherf et al.
# Submitted via: ExactAudioCopy v0.99pb4
#
DISCID=c90b6b10
DTITLE=Lonesome River Band - Best Of The Sugar Hill Years
DYEAR=2006
DGENRE=Bluegrass
TTITLE0=Highway Paved With Pain
TTITLE1=Old Country town
TTITLE2=Solid Rock
TTITLE3=Who Needs You
TTITLE4=When You Go Out Walking
TTITLE5=Flat Broke And Lonesome
TTITLE6=Carolyn The Teenage Queen
TTITLE7=Katy Daley
TTITLE8=Sweet Sally Brown
TTITLE9=Perfume, Powder And Lead
TTITLE10=Baby Come Home
TTITLE11=Am I A Fool
TTITLE12=Are You Ashamed To Call Me Darlin'
TTITLE13=Mary Ann
TTITLE14=Harvest Time
TTITLE15=Swing That Hammer
EXTD=
EXTT0=
EXTT1=
EXTT2=
EXTT3=
EXTT4=
EXTT5=
EXTT6=
EXTT7=
EXTT8=
EXTT9=
EXTT10=
EXTT11=
EXTT12=
EXTT13=
EXTT14=
EXTT15=
PLAYORDER=
